<svg width="311" height="32" viewBox="0 0 311 32" fill="none" xmlns="http://www.w3.org/2000/svg">
<path fill-rule="evenodd" clip-rule="evenodd" d="M12 8H8V12H4H0V16V20V24H4H8V20H12H16V16V12V8H12ZM4 20H8V16H12V12H8V16H4V20Z" fill="white"/>
<path d="M51.424 27H45.408L43.872 24.312H32.16L30.656 27H24.608L35.2 7.032H40.832L51.424 27ZM41.6 19.672L38.016 13.112L34.496 19.672H41.6ZM73.9193 7.032C74.2393 7.032 74.5593 7.128 74.8793 7.32C75.2206 7.49067 75.5193 7.71467 75.7753 7.992C76.0526 8.26933 76.2766 8.57867 76.4473 8.92C76.6393 9.24 76.7353 9.54933 76.7353 9.848V23.192C76.7353 23.8747 76.6286 24.4613 76.4153 24.952C76.2233 25.4427 75.9566 25.8373 75.6153 26.136C75.2739 26.4347 74.8899 26.6587 74.4633 26.808C74.0366 26.936 73.5886 27 73.1193 27H53.4713V15.352H59.1353V22.328H70.6233C70.9433 22.328 71.1033 22.2 71.1033 21.944V11.992C71.1033 11.9067 71.0499 11.8213 70.9433 11.736C70.8579 11.6507 70.7513 11.608 70.6233 11.608H53.4713V7.032H73.9193ZM79.6275 19.384V14.776H90.8595V19.384H79.6275ZM93.7525 15.352H110.873C111.214 15.352 111.385 15.224 111.385 14.968V12.024C111.385 11.9387 111.331 11.8533 111.225 11.768C111.118 11.6827 111.001 11.64 110.873 11.64H93.7525V7.032H114.201C114.521 7.032 114.841 7.128 115.161 7.32C115.502 7.49067 115.801 7.71467 116.057 7.992C116.334 8.26933 116.558 8.57867 116.729 8.92C116.921 9.24 117.017 9.54933 117.017 9.848V16.184C117.017 16.8667 116.91 17.4533 116.697 17.944C116.505 18.4347 116.238 18.8293 115.897 19.128C115.555 19.4267 115.161 19.6507 114.713 19.8C114.286 19.928 113.849 19.992 113.401 19.992H99.4165V27H93.7525V15.352ZM119.909 10.616C119.909 9.976 120.026 9.432 120.261 8.984C120.517 8.536 120.847 8.17333 121.253 7.896C121.679 7.59733 122.149 7.384 122.661 7.256C123.173 7.10667 123.706 7.032 124.261 7.032H138.853C139.365 7.032 139.877 7.10667 140.389 7.256C140.901 7.40533 141.359 7.64 141.765 7.96C142.191 8.25867 142.533 8.632 142.789 9.08C143.066 9.528 143.205 10.04 143.205 10.616V23.416C143.205 23.992 143.066 24.504 142.789 24.952C142.533 25.4 142.191 25.784 141.765 26.104C141.359 26.4027 140.901 26.6267 140.389 26.776C139.877 26.9253 139.365 27 138.853 27H124.261C123.706 27 123.173 26.936 122.661 26.808C122.149 26.6587 121.679 26.4453 121.253 26.168C120.847 25.8693 120.517 25.496 120.261 25.048C120.026 24.6 119.909 24.056 119.909 23.416V10.616ZM137.541 22.392V11.64H125.541V22.392H137.541ZM146.096 27V15.352H162.448C162.79 15.352 162.96 15.224 162.96 14.968V12.024C162.96 11.9387 162.907 11.8533 162.8 11.768C162.694 11.6827 162.576 11.64 162.448 11.64H146.096V7.032H165.808C166.107 7.032 166.416 7.128 166.736 7.32C167.078 7.49067 167.387 7.71467 167.664 7.992C167.942 8.26933 168.166 8.57867 168.336 8.92C168.528 9.24 168.624 9.54933 168.624 9.848V16.184C168.624 16.8667 168.464 17.4533 168.144 17.944C167.846 18.4347 167.44 18.84 166.928 19.16C166.438 19.4587 165.872 19.6827 165.232 19.832C164.614 19.96 163.984 20.024 163.344 20.024L170.992 27H163.12L155.312 20.024H151.76V27H146.096ZM178.959 27V11.64H171.503V7.032H192.239V11.64H184.591V27H178.959ZM195.128 7.032H215.864V11.64H200.76V15.352H208.696V19.96H200.76V27H195.128V7.032ZM218.753 10.616C218.753 9.976 218.87 9.432 219.105 8.984C219.361 8.536 219.691 8.17333 220.097 7.896C220.523 7.59733 220.993 7.384 221.505 7.256C222.017 7.10667 222.55 7.032 223.105 7.032H237.697C238.209 7.032 238.721 7.10667 239.233 7.256C239.745 7.40533 240.203 7.64 240.609 7.96C241.035 8.25867 241.377 8.632 241.633 9.08C241.91 9.528 242.049 10.04 242.049 10.616V23.416C242.049 23.992 241.91 24.504 241.633 24.952C241.377 25.4 241.035 25.784 240.609 26.104C240.203 26.4027 239.745 26.6267 239.233 26.776C238.721 26.9253 238.209 27 237.697 27H223.105C222.55 27 222.017 26.936 221.505 26.808C220.993 26.6587 220.523 26.4453 220.097 26.168C219.691 25.8693 219.361 25.496 219.105 25.048C218.87 24.6 218.753 24.056 218.753 23.416V10.616ZM236.385 22.392V11.64H224.385V22.392H236.385ZM244.94 27V7.032H250.572V22.392H265.676V27H244.94ZM268.565 27V22.392H272.917V11.64H268.565V7.032H282.901V11.64H278.549V22.392H282.901V27H268.565ZM285.784 10.616C285.784 9.976 285.901 9.432 286.136 8.984C286.392 8.536 286.722 8.17333 287.128 7.896C287.554 7.59733 288.024 7.384 288.536 7.256C289.048 7.10667 289.581 7.032 290.136 7.032H304.728C305.24 7.032 305.752 7.10667 306.264 7.256C306.776 7.40533 307.234 7.64 307.64 7.96C308.066 8.25867 308.408 8.632 308.664 9.08C308.941 9.528 309.08 10.04 309.08 10.616V23.416C309.08 23.992 308.941 24.504 308.664 24.952C308.408 25.4 308.066 25.784 307.64 26.104C307.234 26.4027 306.776 26.6267 306.264 26.776C305.752 26.9253 305.24 27 304.728 27H290.136C289.581 27 289.048 26.936 288.536 26.808C288.024 26.6587 287.554 26.4453 287.128 26.168C286.722 25.8693 286.392 25.496 286.136 25.048C285.901 24.6 285.784 24.056 285.784 23.416V10.616ZM303.416 22.392V11.64H291.416V22.392H303.416Z" fill="white"/>
</svg>
